<?xml version="1.0" encoding="UTF-8"?>
<!DOCTYPE svg PUBLIC "-//W3C//DTD SVG 1.1//EN" "http://www.w3.org/Graphics/SVG/1.1/DTD/svg11.dtd">
<!-- Creator: CorelDRAW -->
<svg xmlns="http://www.w3.org/2000/svg" xml:space="preserve" width="66.1458mm" height="66.1458mm" version="1.1" style="shape-rendering:geometricPrecision; text-rendering:geometricPrecision; image-rendering:optimizeQuality; fill-rule:evenodd; clip-rule:evenodd"
viewBox="0 0 6614.58 6614.58"
 xmlns:xlink="http://www.w3.org/1999/xlink"
 xmlns:xodm="http://www.corel.com/coreldraw/odm/2003">
 <defs>
  <style type="text/css">
   <![CDATA[
    .str0 {stroke:white;stroke-width:26.45;stroke-miterlimit:22.9256}
    .fil2 {fill:none}
    .fil0 {fill:white}
    .fil3 {fill:#EAF5FF;fill-rule:nonzero}
    .fil1 {fill:url(#id3)}
   ]]>
  </style>
    <clipPath id="id0">
     <path d="M5835.07 2651.93c67.89,192.08 144.98,384.37 186.66,584.45 39.05,187.55 -3.42,594.84 306.5,426.2 87.01,-140.25 6.91,-1072.75 -493.16,-1010.65z"/>
    </clipPath>
    <clipPath id="id1">
     <path d="M962.04 2510.82c-222.37,331.99 -431.36,1318.85 -127.46,1628.98 373.82,381.49 1083.01,585.02 1572.06,313.33 645.96,-358.86 775.36,-563.09 1375.97,-225.6 601.34,337.89 890.03,524.51 1584.95,179.05 714.11,-355 614.61,-726.14 432.24,-1422.52 -191.83,-732.51 -473.28,-753.19 -1215.28,-876.45 -683.87,-113.6 -3212.2,-209.3 -3622.48,403.21z"/>
    </clipPath>
    <clipPath id="id2">
     <path d="M266.4 3662.95c310.87,164.88 265.99,-233.08 306.22,-426.33 43.51,-209.01 122.86,-385.55 186.75,-584.69 -499.39,-62.01 -581.06,868.33 -492.97,1011.02z"/>
    </clipPath>
  <linearGradient id="id3" gradientUnits="objectBoundingBox" x1="166.657%" y1="68.2479%" x2="0%" y2="28.6099%">
   <stop offset="0" style="stop-opacity:1; stop-color:#B218FF"/>
   <stop offset="1" style="stop-opacity:1; stop-color:#0081FB"/>
  </linearGradient>
 </defs>
 <g id="Camada_x0020_1">
  <metadata id="CorelCorpID_0Corel-Layer"/>
  <g id="_2159854311088">
   <path class="fil0" d="M5835.07 2651.93c67.89,192.08 144.98,384.37 186.66,584.45 39.05,187.55 -3.42,594.84 306.5,426.2 87.01,-140.25 6.91,-1072.75 -493.16,-1010.65z"/>
   <g style="clip-path:url(#id0)">
    <g>
     <polygon id="_1" class="fil1" points="6604.42,6614.57 -10.16,6614.57 -10.16,-0.02 6604.42,-0.02 "/>
    </g>
   </g>
   <path class="fil2 str0" d="M5835.07 2651.93c67.89,192.08 144.98,384.37 186.66,584.45 39.05,187.55 -3.42,594.84 306.5,426.2 87.01,-140.25 6.91,-1072.75 -493.16,-1010.65z"/>
   <path class="fil0" d="M962.04 2510.82c-222.37,331.99 -431.36,1318.85 -127.46,1628.98 373.82,381.49 1083.01,585.02 1572.06,313.33 645.96,-358.86 775.36,-563.09 1375.97,-225.6 601.34,337.89 890.03,524.51 1584.95,179.05 714.11,-355 614.61,-726.14 432.24,-1422.52 -191.83,-732.51 -473.28,-753.19 -1215.28,-876.45 -683.87,-113.6 -3212.2,-209.3 -3622.48,403.21z"/>
   <g style="clip-path:url(#id1)">
    <g>
     <polygon id="_1_3" class="fil1" points="6604.42,6614.57 -10.16,6614.57 -10.16,-0.02 6604.42,-0.02 "/>
    </g>
   </g>
   <path class="fil2 str0" d="M962.04 2510.82c-222.37,331.99 -431.36,1318.85 -127.46,1628.98 373.82,381.49 1083.01,585.02 1572.06,313.33 645.96,-358.86 775.36,-563.09 1375.97,-225.6 601.34,337.89 890.03,524.51 1584.95,179.05 714.11,-355 614.61,-726.14 432.24,-1422.52 -191.83,-732.51 -473.28,-753.19 -1215.28,-876.45 -683.87,-113.6 -3212.2,-209.3 -3622.48,403.21z"/>
   <path class="fil0" d="M266.4 3662.95c310.87,164.88 265.99,-233.08 306.22,-426.33 43.51,-209.01 122.86,-385.55 186.75,-584.69 -499.39,-62.01 -581.06,868.33 -492.97,1011.02z"/>
   <g style="clip-path:url(#id2)">
    <g>
     <polygon id="_1_4" class="fil1" points="6604.42,6614.57 -10.16,6614.57 -10.16,-0.02 6604.42,-0.02 "/>
    </g>
   </g>
   <path class="fil2 str0" d="M266.4 3662.95c310.87,164.88 265.99,-233.08 306.22,-426.33 43.51,-209.01 122.86,-385.55 186.75,-584.69 -499.39,-62.01 -581.06,868.33 -492.97,1011.02z"/>
  </g>
  <polygon class="fil3" points="1577.39,2900.82 1379.27,3359.43 1183.9,2900.82 1023.39,2900.82 1300.39,3542.87 1447.14,3542.87 1725.06,2900.82 "/>
  <path id="_1_5" class="fil3" d="M2117.63 3049.41l-139.42 334.78 -138.5 -334.78 -147.67 0 213.71 497.13 -1.83 4.58c-19.26,44.03 -41.27,61.46 -80.72,61.46 -28.43,0 -58.7,-11.93 -80.71,-31.19l-52.28 101.81c32.1,28.44 87.13,44.95 137.58,44.95 88.97,0 156.85,-35.77 204.54,-155.01l222.89 -523.73 -137.59 0z"/>
  <path id="_2" class="fil3" d="M2472.6 3550.21c147.67,0 232.97,-65.12 232.97,-156.85 0,-194.45 -298.1,-112.81 -298.1,-197.2 0,-25.68 27.52,-45.86 91.73,-45.86 44.94,0 93.55,9.17 142.17,36.69l47.69 -101.81c-46.78,-27.52 -121.99,-43.11 -189.86,-43.11 -144.01,0 -228.39,66.04 -228.39,159.59 0,197.21 298.09,114.5 298.09,195.37 0,27.52 -24.76,44.95 -90.8,44.95 -60.54,0 -127.49,-19.27 -171.52,-47.7l-47.7 102.73c45.87,30.27 130.25,53.2 213.72,53.2z"/>
  <path id="_3" class="fil3" d="M2865.16 2980.61c53.2,0 88.97,-34.85 88.97,-82.55 0,-44.02 -35.77,-77.04 -88.97,-77.04 -53.2,0 -88.97,34.85 -88.97,79.8 0,44.94 35.77,79.79 88.97,79.79zm-71.54 562.26l143.09 0 0 -493.46 -143.09 0 0 493.46z"/>
  <path id="_4" class="fil3" d="M3304.51 3550.21c156.84,0 270.58,-105.48 270.58,-254.07 0,-148.59 -113.74,-254.07 -270.58,-254.07 -156.85,0 -271.5,105.48 -271.5,254.07 0,148.59 114.65,254.07 271.5,254.07zm0 -117.41c-71.55,0 -126.58,-51.36 -126.58,-136.66 0,-85.3 55.03,-136.67 126.58,-136.67 71.54,0 125.66,51.37 125.66,136.67 0,85.3 -54.12,136.66 -125.66,136.66z"/>
  <path id="_5" class="fil3" d="M3970.41 3042.07c-66.96,0 -124.74,22.93 -163.26,65.12l0 -57.78 -136.67 0 0 493.46 143.09 0 0 -243.98c0,-90.81 49.53,-133 118.32,-133 63.29,0 99.97,36.69 99.97,116.49l0 260.49 143.09 0 0 -282.5c0,-150.43 -88.05,-218.3 -204.54,-218.3z"/>
  <polygon id="_6" class="fil3" points="4783.99,2900.82 4585.87,3359.43 4390.5,2900.82 4229.99,2900.82 4506.99,3542.87 4653.74,3542.87 4931.66,2900.82 "/>
  <path id="_7" class="fil3" d="M5553.54 3542.87l-144.01 -206.37c83.47,-35.78 132.08,-106.4 132.08,-202.71 0,-144 -107.31,-232.97 -278.83,-232.97l-277.92 0 0 642.05 148.59 0 0 -178.86 129.33 0 7.33 0 123.83 178.86 159.6 0zm-162.35 -409.08c0,69.71 -45.86,111.9 -136.67,111.9l-121.07 0 0 -223.8 121.07 0c90.81,0 136.67,41.27 136.67,111.9z"/>
 </g>
</svg>
